<?xml version="1.0" standalone="no"?>
<!DOCTYPE svg PUBLIC "-//W3C//DTD SVG 20010904//EN"
 "http://www.w3.org/TR/2001/REC-SVG-20010904/DTD/svg10.dtd">
<svg version="1.0" xmlns="http://www.w3.org/2000/svg"
 width="1024.000000pt" height="1024.000000pt" viewBox="0 0 1024.000000 1024.000000"
 preserveAspectRatio="xMidYMid meet">

<g transform="translate(0.000000,1024.000000) scale(0.100000,-0.100000)"
fill="#000000" stroke="none">
<path d="M5000 7767 c-30 -13 -116 -55 -190 -94 -74 -39 -470 -240 -880 -446
-1080 -545 -1068 -539 -1112 -576 -25 -21 -52 -58 -69 -95 -27 -59 -28 -67
-30 -236 -2 -162 -1 -179 20 -226 37 -85 118 -143 212 -152 l49 -5 0 -1138 0
-1139 -207 -2 -208 -3 -3 -127 -3 -128 -184 0 -185 0 -2 -207 c-1 -115 -2
-248 -2 -298 l-1 -90 2890 -3 c1590 -1 2900 0 2913 3 l22 5 0 295 0 295 -190
0 -189 0 -3 128 -3 127 -202 3 -203 2 0 1139 0 1138 49 6 c100 12 187 80 217
170 12 37 15 82 12 220 -3 165 -4 174 -31 229 -16 32 -45 71 -65 88 -38 32
-271 153 -957 500 -231 117 -593 302 -805 410 -212 109 -407 205 -433 214 -69
23 -161 20 -227 -7z m383 -321 c144 -73 469 -238 722 -366 253 -128 628 -318
833 -422 l372 -190 0 -159 0 -159 -77 2 c-70 2 -72 2 -20 5 l57 4 0 134 0 133
-292 147 c-161 81 -412 208 -557 283 -145 74 -261 128 -257 121 5 -9 3 -8 -6
1 -21 25 -131 77 -152 72 -13 -3 -16 0 -11 9 5 8 4 10 -3 5 -6 -4 -26 1 -43
10 -26 13 -33 14 -40 2 -6 -9 -9 -9 -9 -1 0 19 18 25 40 13 11 -6 20 -8 20 -6
0 3 -14 13 -31 22 -17 8 -28 11 -25 5 4 -6 3 -11 -3 -11 -5 0 -12 -8 -15 -17
-2 -10 -3 -4 -1 14 2 20 -2 34 -11 37 -8 3 -14 2 -14 -2 0 -12 -73 -10 -88 2
-7 6 -23 20 -34 30 -18 16 -20 17 -15 3 5 -14 0 -17 -24 -17 -17 0 -32 -6 -35
-15 -4 -8 -10 -15 -15 -15 -5 0 -4 9 3 20 7 11 18 20 25 20 7 0 10 7 6 16 -4
11 -8 12 -13 4 -4 -7 -13 -10 -19 -6 -6 4 -19 2 -29 -3 -27 -14 -35 -2 -17 26
13 20 13 23 1 23 -8 0 -17 -8 -19 -17 -4 -15 -6 -15 -12 5 -4 12 -12 22 -18
22 -6 0 -18 7 -26 14 -12 11 -21 12 -31 5 -12 -9 -12 -10 3 -5 21 7 23 -7 3
-23 -12 -10 -16 -8 -21 10 -4 13 -10 17 -14 11 -4 -6 -12 -7 -20 -3 -10 7 -11
13 -2 30 14 25 13 25 -30 7 -31 -13 -35 -12 -51 7 -18 21 -22 31 -18 56 1 10
-3 10 -15 -3 -10 -10 -25 -14 -36 -11 -17 6 -24 -6 -21 -36 1 -3 -5 -6 -13 -6
-7 0 -11 7 -7 15 3 10 1 13 -6 8 -7 -4 -12 -2 -12 3 0 6 -12 11 -27 10 l-28 0
24 -10 c13 -5 22 -12 19 -14 -3 -3 -27 5 -54 17 -27 12 -56 21 -64 19 -10 -2
-8 3 5 13 25 19 35 20 35 2 0 -16 27 -29 41 -20 5 3 9 13 9 23 0 21 29 23 45
4 7 -8 23 -9 50 -3 22 4 38 8 35 9 -8 3 -83 11 -102 12 -10 0 -20 4 -23 10 -4
5 -15 9 -26 9 -19 0 -19 -1 -5 -16 19 -18 19 -21 4 -30 -7 -4 -8 -3 -4 4 4 7
1 12 -6 12 -7 0 -20 5 -28 10 -13 9 -13 11 0 20 13 9 13 10 0 10 -13 0 -13 1
0 11 13 9 13 10 0 6 -8 -2 -15 -10 -15 -18 0 -15 -32 -14 -51 2 -7 5 -11 3
-11 -6 0 -9 14 -17 34 -21 22 -4 31 -10 25 -16 -6 -6 -23 -4 -47 6 -42 18 -48
19 -42 9 3 -5 -10 -9 -29 -9 -19 -1 -34 3 -34 8 0 5 -9 7 -19 3 -11 -3 -22 -1
-26 5 -3 5 -11 10 -17 10 -7 0 -7 -4 0 -13 9 -10 4 -13 -23 -13 -20 0 -29 3
-23 7 7 5 10 10 8 12 -3 3 -30 -8 -60 -24 -30 -16 -43 -26 -29 -23 28 6 49
-19 27 -32 -7 -4 -14 -2 -16 4 -2 7 -11 12 -20 12 -15 0 -15 -2 -2 -10 12 -7
12 -12 2 -22 -9 -9 -12 -9 -12 0 0 10 -5 10 -21 2 -11 -7 -18 -18 -15 -25 3
-8 1 -17 -5 -21 -5 -3 -7 -14 -4 -24 7 -23 -6 -32 -25 -18 -12 8 -11 9 3 4 12
-4 17 -2 14 6 -2 7 -12 13 -23 13 -19 0 -44 -16 -39 -25 1 -3 -6 -14 -16 -24
-11 -11 -19 -14 -19 -8 0 6 4 13 10 17 5 3 7 12 4 20 -4 8 -10 12 -15 9 -5 -3
-9 0 -9 6 0 6 -4 9 -8 6 -5 -3 -7 -18 -6 -35 2 -32 -21 -50 -40 -30 -8 9 -7
11 5 6 9 -3 16 0 16 8 0 10 -6 11 -24 2 -12 -5 -23 -19 -23 -29 0 -12 4 -16
12 -12 7 4 8 3 4 -5 -4 -6 -11 -9 -16 -6 -5 3 -11 1 -15 -5 -3 -5 -11 -10 -17
-10 -6 0 -4 8 5 18 22 25 21 29 -5 28 -20 -1 -23 -6 -20 -41 2 -28 0 -36 -7
-26 -5 8 -16 11 -24 8 -11 -4 -14 -1 -10 9 3 7 0 14 -6 14 -11 0 -15 -13 -12
-39 2 -7 -2 -10 -9 -6 -7 4 -10 22 -8 40 4 37 3 37 -74 -5 -46 -25 -49 -28
-28 -35 18 -6 20 -9 9 -16 -11 -7 -10 -9 5 -9 18 0 18 -1 2 -19 -10 -11 -29
-22 -42 -25 -14 -4 -22 -11 -19 -17 5 -6 13 -6 23 3 14 10 15 10 5 -2 -7 -7
-22 -15 -33 -17 -14 -2 -18 1 -13 15 5 15 4 15 -8 -1 -8 -10 -23 -19 -34 -19
-17 -2 -20 -8 -17 -34 3 -25 0 -32 -17 -37 -12 -3 -21 -10 -21 -16 0 -6 6 -9
13 -7 6 1 9 1 4 -1 -4 -3 -5 -8 -3 -11 2 -4 -7 -7 -20 -7 -27 0 -30 5 -11 24
6 8 0 6 -15 -4 -36 -22 -36 -38 0 -33 16 2 29 -1 29 -6 0 -17 -54 -13 -65 4
-10 16 6 49 25 53 4 1 7 5 6 10 -3 7 20 11 42 8 6 -1 3 4 -6 11 -18 15 -14 38
7 38 8 0 14 5 14 10 0 7 -6 7 -20 0 -18 -10 -24 -22 -21 -42 0 -5 -4 -8 -9 -8
-6 0 -10 5 -10 10 0 6 -4 10 -10 10 -5 0 -6 -8 -3 -17 5 -13 2 -15 -11 -10
-11 5 -15 3 -10 -5 5 -8 2 -9 -10 -5 -10 4 -25 7 -33 7 -12 0 -13 3 -4 14 9
11 9 16 0 22 -7 4 -9 3 -5 -4 3 -6 -5 -19 -19 -30 -14 -11 -25 -24 -25 -28 0
-4 5 -3 12 4 16 16 25 15 32 -4 4 -12 2 -15 -9 -10 -8 3 -15 1 -15 -5 0 -6 -9
-8 -20 -4 -11 4 -20 2 -20 -4 0 -6 -8 -11 -19 -11 -19 0 -31 -25 -24 -48 6
-17 23 -5 23 18 0 10 7 20 15 24 9 3 15 0 15 -10 0 -9 -5 -12 -12 -8 -6 4 -8
3 -5 -3 4 -6 -2 -22 -13 -36 -23 -29 -12 -43 30 -38 24 2 24 2 5 -12 -38 -26
-54 -27 -61 -4 -5 12 -8 25 -9 29 -1 17 -13 16 -18 -2 -3 -11 -2 -18 3 -15 4
3 10 -2 14 -10 7 -20 -18 -20 -34 0 -7 8 -22 14 -34 14 -20 -2 -20 -2 2 -6 12
-2 22 -10 22 -18 0 -16 27 -28 43 -18 7 3 9 3 6 -1 -4 -4 -38 -22 -77 -41 -46
-22 -73 -30 -80 -23 -6 6 -12 6 -17 -3 -5 -8 -4 -10 3 -5 7 4 12 4 12 -1 0 -9
-48 -33 -66 -33 -7 0 -14 -4 -16 -8 -5 -15 -120 -62 -132 -55 -6 3 -8 3 -4 -2
12 -12 -274 -150 -363 -176 -82 -23 -68 -31 46 -25 275 14 577 18 934 10 227
-5 363 -11 331 -15 -30 -4 -309 -11 -620 -15 -311 -5 -527 -12 -480 -15 47 -3
69 -6 50 -7 -27 -2 -31 -5 -20 -12 11 -7 4 -10 -27 -10 -24 0 -43 -4 -43 -10
0 -9 28 -15 58 -11 6 1 12 -5 12 -14 0 -8 -5 -15 -11 -15 -5 0 -7 -5 -3 -12 4
-7 3 -8 -4 -4 -7 4 -12 14 -12 22 0 15 -35 20 -44 5 -18 -29 42 -63 70 -40 8
7 14 7 14 1 0 -5 -8 -14 -17 -18 -12 -6 17 -11 82 -14 59 -4 -28 -7 -212 -8
-172 -1 -316 -3 -320 -4 -10 -4 -15 304 -5 318 4 6 286 152 627 325 341 173
829 420 1085 550 256 130 469 237 473 238 5 0 127 -59 270 -133z m-543 -96 c0
-5 -7 -10 -16 -10 -8 0 -12 5 -9 10 3 6 10 10 16 10 5 0 9 -4 9 -10z m188 -4
c-2 -1 -12 -8 -22 -16 -18 -14 -19 -14 -7 8 7 12 17 20 22 16 6 -3 9 -7 7 -8z
m-71 -18 c1 -10 -2 -18 -7 -18 -5 0 -15 -3 -23 -6 -17 -6 -33 26 -18 36 20 12
47 5 48 -12z m-59 -33 c-3 -3 -9 2 -12 12 -6 14 -5 15 5 6 7 -7 10 -15 7 -18z
m433 -18 c-13 -13 -15 1 -4 30 7 17 8 17 11 -1 2 -10 -1 -23 -7 -29z m-482 11
c0 -21 -1 -21 -8 -4 -5 14 -10 16 -15 8 -4 -7 -15 -12 -24 -12 -12 0 -10 4 8
14 35 20 40 19 39 -6z m461 12 c0 -5 -5 -10 -11 -10 -5 0 -7 5 -4 10 3 6 8 10
11 10 2 0 4 -4 4 -10z m-52 -36 c6 3 13 2 16 -2 3 -5 -4 -9 -16 -8 -12 0 -23
8 -25 16 -4 12 -3 13 5 1 5 -7 14 -11 20 -7z m-488 2 c0 -3 -4 -8 -10 -11 -5
-3 -10 -1 -10 4 0 6 5 11 10 11 6 0 10 -2 10 -4z m130 -22 c0 -8 -19 -13 -24
-6 -3 5 1 9 9 9 8 0 15 -2 15 -3z m-154 -29 c-9 -9 -16 -13 -16 -8 0 12 22 34
28 28 2 -2 -3 -11 -12 -20z m794 -6 c0 -6 -4 -7 -10 -4 -5 3 -10 11 -10 16 0
6 5 7 10 4 6 -3 10 -11 10 -16z m-65 -39 c3 -6 -1 -7 -9 -4 -18 7 -21 14 -7
14 6 0 13 -4 16 -10z m275 -41 c0 -5 -4 -8 -9 -4 -6 3 -14 -3 -20 -12 -12 -20
-14 -13 -5 11 7 18 34 22 34 5z m-1370 -29 c0 -11 -4 -20 -9 -20 -10 0 -8 -21
4 -52 4 -10 4 -18 1 -18 -4 0 -12 14 -18 31 -7 19 -15 28 -24 25 -8 -3 -14 -1
-14 4 0 6 -8 10 -17 10 -11 1 -5 8 17 20 45 25 60 25 60 0z m1453 -3 c-2 -4
-13 -5 -24 -2 -11 4 -19 2 -19 -4 0 -15 -17 -14 -23 2 -3 9 7 12 33 12 21 0
36 -3 33 -8z m-128 -17 c-3 -5 1 -10 10 -10 9 0 13 -4 10 -10 -4 -6 -14 -5
-27 3 -16 9 -22 9 -25 0 -3 -7 -10 -13 -16 -13 -7 1 -1 10 12 20 25 21 46 27
36 10z m-1357 -66 c-3 -14 -5 -12 -10 9 -3 19 -2 25 4 19 6 -6 8 -18 6 -28z
m1650 6 c-7 -10 -14 -18 -15 -16 -6 6 9 36 18 36 5 0 4 -9 -3 -20z m-1525 -23
c-3 -5 -10 -4 -15 1 -6 6 -7 16 -3 22 6 9 9 9 16 -1 4 -7 5 -17 2 -22z m1660
-4 c3 -5 -6 -9 -20 -10 -19 -1 -22 1 -12 8 17 11 26 11 32 2z m-858 -38 c153
-76 247 -249 228 -418 -7 -68 -53 -165 -96 -202 -35 -32 -57 -41 -57 -25 0 6
7 10 15 10 8 0 15 7 15 15 0 9 14 29 30 45 17 17 30 40 30 53 0 14 7 40 15 60
14 35 14 95 -1 131 -5 13 -2 23 11 32 10 8 14 14 7 14 -6 0 -29 18 -52 41 -22
22 -40 39 -40 37 0 -2 7 -25 15 -52 23 -75 19 -162 -9 -221 -65 -137 -209
-201 -359 -162 l-58 15 26 -24 c14 -13 30 -24 36 -24 5 0 9 -4 9 -10 0 -5 9
-10 19 -10 11 0 21 -5 23 -11 2 -6 28 -14 58 -17 70 -6 41 -20 -44 -21 -156
-2 -300 98 -356 246 -31 83 -25 224 13 303 51 106 119 167 239 211 82 30 204
23 283 -16z m-985 15 c0 -5 -5 -10 -11 -10 -5 0 -7 5 -4 10 3 6 8 10 11 10 2
0 4 -4 4 -10z m-87 -52 c-9 -16 -20 -7 -18 15 4 32 6 34 14 12 5 -11 7 -23 4
-27z m122 2 c-3 -5 -12 -10 -18 -10 -7 0 -6 4 3 10 19 12 23 12 15 0z m-130
-30 c-3 -5 -11 -10 -16 -10 -6 0 -7 5 -4 10 3 6 11 10 16 10 6 0 7 -4 4 -10z
m-135 -10 c0 -5 -5 -10 -11 -10 -5 0 -7 5 -4 10 3 6 8 10 11 10 2 0 4 -4 4
-10z m-57 -27 c9 -9 -12 -33 -29 -33 -8 0 -14 5 -14 11 0 6 7 9 14 6 10 -4 13
-1 9 9 -5 14 8 20 20 7z m194 1 c-3 -3 -12 -4 -19 -1 -8 3 -5 6 6 6 11 1 17
-2 13 -5z m-137 -23 c0 -17 -18 -21 -24 -6 -3 9 0 15 9 15 8 0 15 -4 15 -9z
m-96 -36 c-11 -7 -14 -17 -9 -25 6 -9 4 -11 -5 -5 -7 4 -16 2 -21 -6 -7 -11
-9 -10 -9 4 0 9 4 17 9 17 5 0 11 9 14 20 3 14 10 18 21 14 15 -6 15 -7 0 -19z
m61 -4 c-3 -6 -18 -11 -33 -10 l-27 1 30 13 c32 14 41 13 30 -4z m3020 -459
c121 -11 -295 -19 -760 -15 -489 4 -627 15 -295 24 278 7 941 2 1055 -9z
m-3561 -54 c1 -7 5 -19 9 -25 5 -9 3 -11 -6 -7 -8 3 -14 16 -14 30 0 25 7 27
11 2z m-58 -18 c0 -12 -4 -16 -9 -11 -5 5 -6 14 -3 20 10 15 12 14 12 -9z m-6
-34 c0 -3 -4 -8 -10 -11 -5 -3 -10 -1 -10 4 0 6 5 11 10 11 6 0 10 -2 10 -4z
m570 -256 c78 -5 52 -7 -150 -10 -135 -2 -226 -5 -202 -7 46 -4 58 -27 21 -38
-17 -6 -19 -9 -8 -16 8 -5 10 -9 6 -9 -4 0 -3 -10 4 -21 9 -17 8 -23 -2 -30
-11 -6 -11 -11 -1 -21 16 -16 15 -25 -3 -25 -8 0 -11 5 -8 11 3 6 0 5 -8 -1
-9 -10 -67 -13 -216 -13 l-203 0 0 95 0 95 338 -1 c185 -1 380 -5 432 -9z
m1330 0 c0 -6 -75 -11 -202 -11 -112 -1 -192 -4 -180 -6 24 -5 25 -9 7 -58 -5
-16 -5 -17 4 -5 8 11 11 11 11 2 0 -7 -10 -17 -22 -22 -18 -7 -19 -9 -5 -9 22
-1 22 -27 0 -49 -14 -14 -43 -17 -207 -17 l-191 0 -3 93 -3 92 396 0 c257 0
395 -4 395 -10z m1290 0 c10 -6 -61 -10 -190 -11 -113 -1 -185 -5 -160 -8 40
-5 45 -9 45 -31 0 -14 -8 -29 -20 -35 -11 -5 -20 -16 -21 -22 -1 -7 -2 -26 -2
-43 -2 -31 -22 -43 -22 -12 0 14 -2 15 -10 2 -13 -21 -318 -29 -331 -8 -10 16
-12 162 -2 172 10 10 697 6 713 -4z m-2275 -90 l0 -85 -30 0 -30 0 -2 70 c-1
39 -2 75 -2 82 -1 6 -16 14 -33 16 -18 2 -4 4 32 3 l65 -1 0 -85z m1356 23 c2
-105 -1 -113 -51 -113 -20 0 -26 5 -26 23 -1 138 -3 145 -31 150 -16 2 2 5 40
6 l67 1 1 -67z m1317 -25 l3 -88 -38 0 -38 0 3 84 c3 81 3 85 -20 89 -13 3 2
4 32 3 l55 -1 3 -87z m-2022 12 c-1 -27 -5 -49 -9 -47 -5 1 -8 6 -8 10 1 4 1
25 1 47 0 22 4 40 8 40 5 0 8 -22 8 -50z m1342 -44 c-1 -19 -5 -33 -8 -31 -7
4 -1 65 6 65 3 0 4 -15 2 -34z m-42 -32 c-4 -9 -9 -15 -11 -12 -3 3 -3 13 1
22 4 9 9 15 11 12 3 -3 3 -13 -1 -22z m-1296 -4 c0 -5 -4 -10 -10 -10 -5 0
-10 5 -10 10 0 6 5 10 10 10 6 0 10 -4 10 -10z m-1736 -95 c9 -11 51 -16 204
-21 105 -4 192 -10 192 -14 0 -4 -12 -6 -27 -4 -16 2 -20 1 -10 -2 20 -6 22
-20 5 -28 -7 -2 4 -3 25 -1 20 2 37 -1 37 -6 0 -6 4 -8 8 -5 4 2 14 1 22 -5
10 -5 -52 -9 -165 -9 -99 0 -190 -3 -202 -6 -21 -6 -23 -12 -23 -80 0 -40 5
-76 10 -79 12 -7 13 -440 3 -817 l-6 -248 -54 0 -53 0 0 393 c0 418 10 947 18
947 3 0 10 -7 16 -15z m1365 -6 c-9 -5 13 -9 56 -10 39 0 81 -2 95 -4 14 -2
60 -4 102 -5 43 -2 75 -7 72 -11 -3 -5 4 -9 15 -9 12 0 21 -4 21 -9 0 -6 21
-13 48 -17 l47 -8 -50 -7 c-27 -3 -119 -7 -204 -8 -85 -1 -159 -5 -164 -8 -6
-4 -7 -50 -3 -127 4 -67 8 -160 9 -208 1 -49 5 -88 10 -88 4 0 7 8 8 18 0 9 3
38 5 65 3 26 0 47 -5 47 -5 0 -9 28 -8 63 l2 62 39 3 c22 2 50 1 63 -2 20 -6
22 -9 10 -28 -6 -12 -20 -31 -29 -42 -10 -10 -15 -23 -12 -27 3 -5 -1 -6 -9
-4 -16 7 -37 -31 -33 -61 3 -29 32 -58 40 -41 4 6 4 1 0 -13 -3 -14 -9 -43
-14 -65 -9 -46 -80 -288 -86 -294 -2 -2 -4 18 -4 45 0 27 -5 120 -12 207 l-12
157 -28 0 c-20 0 -28 5 -28 18 0 9 -2 91 -5 182 -3 91 -3 183 1 205 6 40 6 41
41 37 25 -3 31 -7 22 -13z m1386 1 l30 -1 -25 -14 c-23 -13 -14 -14 93 -9 91
5 121 3 134 -7 12 -10 15 -10 9 -1 -9 15 25 17 40 2 6 -6 26 -12 45 -14 69 -6
116 -24 97 -38 -2 -1 -91 -4 -198 -7 l-195 -6 -3 -82 c-2 -46 -7 -83 -12 -83
-6 0 -28 -18 -50 -40 l-40 -40 0 176 0 176 23 -6 c12 -3 36 -6 52 -6z m-2502
-287 c-2 -7 2 -13 7 -13 6 0 10 -10 9 -22 0 -18 -2 -19 -7 -7 -6 14 -9 15 -20
3 -10 -11 -10 -14 0 -14 9 0 9 -3 -1 -12 -11 -10 -14 -10 -18 0 -7 19 -27 14
-51 -11 l-21 -22 20 -33 c12 -17 26 -32 32 -32 7 0 6 -4 -3 -9 -8 -6 -18 -7
-24 -4 -5 3 -6 1 -2 -5 4 -7 15 -12 24 -12 14 0 14 -2 3 -9 -7 -5 -10 -14 -6
-21 6 -9 9 -9 16 1 7 11 9 11 9 -2 0 -9 -7 -19 -15 -23 -9 -3 -15 0 -15 8 0 7
-9 23 -20 36 -14 16 -17 27 -10 34 13 13 13 26 -1 26 -5 0 -8 -4 -4 -9 3 -5 1
-12 -5 -16 -5 -3 -10 -1 -10 4 0 6 -4 11 -9 11 -5 0 -7 -9 -4 -20 3 -11 9 -17
14 -14 5 3 9 1 9 -4 0 -14 -26 -33 -33 -25 -4 3 -7 1 -7 -4 0 -6 6 -13 13 -16
9 -3 9 -7 0 -19 -13 -15 -8 -28 11 -28 8 0 8 3 1 8 -7 5 -5 19 7 42 10 21 17
28 18 18 0 -10 4 -18 8 -18 5 0 6 -15 3 -32 -4 -32 -5 -32 -11 -8 l-6 25 -7
-27 c-4 -16 -14 -28 -22 -28 -19 0 -17 -14 -20 168 l-3 153 76 -3 c55 -2 76
-7 75 -15z m152 -20 l-25 -38 0 -487 c0 -319 -3 -488 -10 -488 -15 0 -14 964
1 993 10 18 47 56 57 57 1 0 -9 -17 -23 -37z m645 -376 l0 -413 -62 0 -63 1
-3 -45 c-2 -25 0 -79 3 -120 6 -60 9 -71 17 -53 12 24 53 36 68 18 11 -13 9
-105 -2 -98 -5 2 -8 -5 -8 -17 0 -13 -4 -19 -12 -14 -6 4 -8 3 -5 -3 4 -6 0
-25 -9 -42 -16 -31 -31 -44 -20 -16 7 20 -4 19 -34 -2 -14 -10 -30 -18 -37
-19 -6 -1 -27 -14 -46 -28 -46 -35 -117 -46 -309 -46 l-158 0 -27 -31 c-16
-17 -43 -46 -61 -65 l-33 -34 -144 0 -145 0 0 160 0 160 368 0 369 0 6 362 c4
199 7 451 7 560 l0 198 170 0 170 0 0 -413z m1185 -82 c78 -269 172 -592 207
-717 l64 -228 -39 0 c-37 0 -38 1 -34 29 4 26 -5 65 -50 216 -8 28 -22 76 -30
109 -14 50 -18 56 -27 39 -6 -10 -18 -17 -27 -15 -11 2 -26 -13 -44 -45 -16
-26 -32 -51 -37 -54 -5 -3 -6 -13 -2 -22 3 -10 1 -17 -5 -17 -6 0 -11 -7 -11
-15 0 -26 -19 -16 -25 13 -10 47 -34 118 -34 102 -1 -13 -36 -16 -248 -18
-136 -2 -250 -7 -253 -12 -3 -5 -25 -77 -49 -159 l-44 -151 -163 0 c-90 0
-164 2 -164 5 0 7 199 694 274 949 36 121 82 279 102 353 l37 133 230 -2 229
-3 143 -490z m1535 345 l0 -150 -370 0 c-288 0 -371 -3 -374 -12 -3 -7 -7
-192 -10 -410 l-7 -398 221 0 221 0 -3 122 -3 121 -127 -2 -128 -2 0 140 0
141 288 -2 287 -3 4 -35 c1 -19 0 -206 -4 -415 l-7 -380 -423 1 c-479 2 -468
1 -560 85 -103 95 -108 122 -103 664 4 483 3 476 68 570 32 46 99 92 153 105
18 5 222 8 455 9 l422 1 0 -150z m-3503 45 c0 -7 -8 -10 -17 -8 -14 4 -17 0
-13 -19 2 -12 0 -34 -6 -48 -7 -18 -10 -20 -10 -7 -1 9 -8 17 -17 17 -8 0 -12
5 -9 10 5 8 12 7 23 -2 15 -11 15 -11 4 3 -7 9 -11 22 -10 29 2 7 -3 14 -10
16 -7 1 -8 0 -3 -2 12 -6 3 -34 -10 -34 -5 0 -9 7 -9 15 0 8 -5 15 -11 15 -8
0 -8 4 0 14 15 18 98 18 98 1z m-40 -197 c1 -18 -1 -26 -4 -18 -3 8 -13 21
-22 29 -15 13 -15 13 2 8 9 -4 17 -2 17 3 0 6 2 10 3 10 2 0 4 -15 4 -32z
m-58 -59 c11 6 23 11 28 11 4 -1 -4 -7 -19 -16 -23 -12 -31 -12 -48 -2 -11 7
-20 17 -20 22 0 5 9 1 19 -8 15 -14 24 -15 40 -7z m-34 -29 c3 -6 -1 -7 -9 -4
-18 7 -21 14 -7 14 6 0 13 -4 16 -10z m912 -622 c-7 -225 -28 -286 -122 -358
-11 -8 -1 8 21 35 42 51 52 70 61 115 2 13 7 27 11 30 10 6 11 23 18 203 3 81
8 147 11 147 3 0 3 -78 0 -172z m1183 -308 c6 -11 8 -20 6 -20 -3 0 -10 9 -16
20 -6 11 -8 20 -6 20 3 0 10 -9 16 -20z m86 -111 c3 -5 -27 -8 -68 -8 -40 1
-62 4 -48 6 14 3 28 8 32 12 10 9 77 1 84 -10z m-1698 -189 c501 -2 465 7 470
-119 l4 -81 -36 0 -36 0 0 74 c0 118 24 113 -492 99 l-248 -6 0 -83 0 -83 -97
-3 c-54 -2 -124 -2 -155 0 l-58 3 0 88 c0 116 5 120 145 115 44 -1 270 -3 503
-4z m3120 -16 c20 -13 22 -22 22 -99 l0 -85 -37 0 -38 0 3 70 c2 43 -1 76 -8
85 -19 23 -104 27 -431 20 l-319 -8 0 -83 0 -84 -145 0 -145 0 0 78 c1 77 9
99 42 118 10 5 225 8 525 6 423 -3 512 -6 531 -18z m-1312 -8 c9 -13 14 -46
14 -93 l0 -73 -37 0 -38 0 3 72 c1 40 -2 80 -7 88 -12 18 -42 18 -453 6 l-308
-9 0 -83 0 -84 -92 -1 c-51 0 -122 -1 -158 -2 l-65 -2 -3 76 c-2 64 0 79 19
102 l21 27 545 -2 c526 -3 545 -4 559 -22z m1717 -331 c12 -11 17 -12 20 -2 3
6 5 -15 4 -48 0 -47 -1 -51 -4 -17 -2 23 -8 40 -13 37 -5 -3 -7 -18 -4 -33 3
-16 -1 -44 -9 -62 l-15 -35 -1 66 -1 66 -1902 -4 c-1047 -2 -2057 -6 -2245 -9
l-343 -6 0 -79 0 -79 1578 -1 c867 0 1588 -2 1602 -4 14 -2 320 -5 680 -6 968
-5 980 -6 980 -29 0 -20 -17 -20 -1162 -21 -640 -1 -1203 -2 -1253 -4 -49 -1
-703 -3 -1452 -4 l-1363 -1 0 -100 0 -100 -30 0 -31 0 3 128 3 127 193 3 192
2 0 115 0 115 2279 0 c2007 0 2281 -2 2294 -15z m374 -257 c-3 -7 -5 -2 -5 12
0 14 2 19 5 13 2 -7 2 -19 0 -25z m0 -80 c-3 -8 -6 -5 -6 6 -1 11 2 17 5 13 3
-3 4 -12 1 -19z m30 0 c-3 -8 -6 -5 -6 6 -1 11 2 17 5 13 3 -3 4 -12 1 -19z"/>
<path d="M5054 7485 c-15 -11 -16 -14 -4 -15 21 0 44 16 33 23 -6 4 -19 0 -29
-8z"/>
<path d="M5002 7460 c-19 -8 -21 -12 -10 -29 6 -11 16 -17 20 -15 14 9 8 24
-9 25 -14 0 -13 2 5 9 12 5 22 12 22 15 0 6 1 6 -28 -5z"/>
<path d="M5080 7449 c0 -5 5 -7 10 -4 6 3 10 8 10 11 0 2 -4 4 -10 4 -5 0 -10
-5 -10 -11z"/>
<path d="M5152 7444 c-7 -8 -8 -14 -3 -14 10 0 25 19 20 25 -2 1 -10 -3 -17
-11z"/>
<path d="M5205 7450 c3 -5 8 -10 11 -10 2 0 4 5 4 10 0 6 -5 10 -11 10 -5 0
-7 -4 -4 -10z"/>
<path d="M5234 7445 c2 -13 11 -20 27 -21 14 -1 35 -6 47 -13 12 -6 22 -9 22
-7 0 9 -62 38 -67 32 -4 -3 -12 2 -19 12 -12 16 -13 16 -10 -3z"/>
<path d="M5038 7443 c6 -2 18 -2 25 0 6 3 1 5 -13 5 -14 0 -19 -2 -12 -5z"/>
<path d="M4940 7424 c-17 -9 -20 -14 -9 -14 9 0 22 7 29 15 15 18 13 18 -20
-1z"/>
<path d="M5080 7420 c0 -5 7 -10 16 -10 8 0 12 5 9 10 -3 6 -10 10 -16 10 -5
0 -9 -4 -9 -10z"/>
<path d="M5173 7413 c9 -2 25 -2 35 0 9 3 1 5 -18 5 -19 0 -27 -2 -17 -5z"/>
<path d="M5225 7400 c-3 -5 -1 -10 4 -10 6 0 11 5 11 10 0 6 -2 10 -4 10 -3 0
-8 -4 -11 -10z"/>
<path d="M4970 7391 c0 -6 4 -12 8 -15 5 -3 9 1 9 9 0 8 -4 15 -9 15 -4 0 -8
-4 -8 -9z"/>
<path d="M5000 7390 c0 -5 5 -10 10 -10 6 0 10 5 10 10 0 6 -4 10 -10 10 -5 0
-10 -4 -10 -10z"/>
<path d="M5334 7388 c-4 -7 -3 -8 4 -4 7 4 20 2 29 -3 17 -10 17 -10 1 -11
-11 0 -15 -5 -12 -15 6 -14 8 -13 19 1 6 9 17 14 23 10 7 -4 12 -5 12 -2 0 5
-54 36 -64 36 -3 0 -8 -5 -12 -12z"/>
<path d="M5390 7324 c0 -9 40 -23 44 -15 3 5 -5 11 -19 13 -14 3 -25 4 -25 2z"/>
<path d="M4710 7300 c0 -5 -5 -9 -12 -7 -6 1 -15 -9 -19 -23 -4 -16 -7 -19 -8
-7 -1 9 -6 17 -11 17 -7 0 -7 -7 1 -21 11 -22 11 -22 35 6 23 26 30 45 19 45
-3 0 -5 -4 -5 -10z"/>
<path d="M5585 7270 c3 -5 11 -10 16 -10 6 0 7 5 4 10 -3 6 -11 10 -16 10 -6
0 -7 -4 -4 -10z"/>
<path d="M4610 7254 c-14 -7 -20 -13 -15 -13 6 -1 17 3 25 9 9 6 17 5 22 -3 6
-9 8 -9 8 0 0 19 -14 22 -40 7z"/>
<path d="M4700 7249 c0 -5 5 -7 10 -4 6 3 10 8 10 11 0 2 -4 4 -10 4 -5 0 -10
-5 -10 -11z"/>
<path d="M4545 7220 c-3 -6 1 -7 9 -4 18 7 21 14 7 14 -6 0 -13 -4 -16 -10z"/>
<path d="M5650 7210 c0 -5 5 -10 11 -10 5 0 7 5 4 10 -3 6 -8 10 -11 10 -2 0
-4 -4 -4 -10z"/>
<path d="M4490 7195 c-14 -8 -20 -14 -14 -15 5 0 19 7 30 15 24 18 16 19 -16
0z"/>
<path d="M5727 7199 c7 -7 15 -10 18 -7 3 3 -2 9 -12 12 -14 6 -15 5 -6 -5z"/>
<path d="M5605 7180 c-3 -6 1 -7 9 -4 18 7 21 14 7 14 -6 0 -13 -4 -16 -10z"/>
<path d="M5784 7167 c2 -19 26 -47 26 -31 0 6 -6 19 -14 30 -13 17 -14 17 -12
1z"/>
<path d="M4245 7059 c-4 -6 -4 -13 -1 -16 3 -3 1 -12 -5 -20 -15 -17 1 -16 25
2 17 13 18 15 3 15 -20 0 -23 16 -4 23 9 4 9 6 0 6 -6 1 -15 -4 -18 -10z"/>
<path d="M4200 7050 c-8 -5 -10 -10 -5 -10 6 0 17 5 25 10 8 5 11 10 5 10 -5
0 -17 -5 -25 -10z"/>
<path d="M4125 7010 c-3 -6 1 -7 9 -4 18 7 21 14 7 14 -6 0 -13 -4 -16 -10z"/>
<path d="M4165 6990 c-3 -5 -1 -10 4 -10 6 0 11 5 11 10 0 6 -2 10 -4 10 -3 0
-8 -4 -11 -10z"/>
<path d="M4068 6953 c7 -3 16 -2 19 1 4 3 -2 6 -13 5 -11 0 -14 -3 -6 -6z"/>
<path d="M3795 6840 c-3 -6 1 -7 9 -4 18 7 21 14 7 14 -6 0 -13 -4 -16 -10z"/>
<path d="M3750 6820 c-9 -6 -10 -10 -3 -10 6 0 15 5 18 10 8 12 4 12 -15 0z"/>
<path d="M3690 6790 c-19 -11 -31 -19 -27 -20 11 0 67 29 67 35 0 7 -1 7 -40
-15z"/>
<path d="M3831 6794 c0 -11 3 -14 6 -6 3 7 2 16 -1 19 -3 4 -6 -2 -5 -13z"/>
<path d="M3760 6780 c0 -5 5 -10 10 -10 6 0 10 5 10 10 0 6 -4 10 -10 10 -5 0
-10 -4 -10 -10z"/>
<path d="M3645 6739 c-3 -4 2 -6 10 -5 21 3 28 13 10 13 -9 0 -18 -4 -20 -8z"/>
<path d="M3773 6713 c-7 -3 -13 -10 -13 -16 0 -8 4 -7 12 1 24 24 29 11 8 -20
-16 -24 -17 -27 -3 -13 10 11 26 27 35 36 16 15 15 16 -5 16 -12 0 -28 -2 -34
-4z"/>
<path d="M3165 6309 c-4 -6 -5 -12 -2 -15 2 -3 7 2 10 11 7 17 1 20 -8 4z"/>
<path d="M3105 6300 c3 -5 8 -10 11 -10 2 0 4 5 4 10 0 6 -5 10 -11 10 -5 0
-7 -4 -4 -10z"/>
<path d="M3198 6303 c7 -3 16 -2 19 1 4 3 -2 6 -13 5 -11 0 -14 -3 -6 -6z"/>
<path d="M3238 6303 c6 -2 18 -2 25 0 6 3 1 5 -13 5 -14 0 -19 -2 -12 -5z"/>
<path d="M3300 6279 c0 -5 5 -7 10 -4 6 3 10 8 10 11 0 2 -4 4 -10 4 -5 0 -10
-5 -10 -11z"/>
<path d="M3271 6223 c-1 -14 5 -23 14 -23 8 0 15 5 15 11 0 5 -4 8 -9 4 -5 -3
-12 3 -14 12 -4 14 -5 13 -6 -4z"/>
<path d="M3328 6163 c6 -2 18 -2 25 0 6 3 1 5 -13 5 -14 0 -19 -2 -12 -5z"/>
<path d="M4923 7325 c0 -7 6 -11 14 -8 7 3 13 6 13 8 0 2 -6 5 -13 8 -8 3 -14
-1 -14 -8z"/>
<path d="M5016 6845 c-174 -62 -225 -304 -93 -444 122 -128 345 -97 433 61 25
46 29 63 29 133 0 63 -5 89 -22 121 -26 49 -82 100 -137 125 -49 22 -153 24
-210 4z m29 -45 c9 8 11 4 8 -17 -3 -26 -3 -27 6 -5 10 22 41 31 41 12 0 -5
-6 -9 -12 -7 -8 1 -12 -6 -10 -16 2 -9 -1 -17 -5 -16 -22 4 -44 -2 -38 -10 3
-5 1 -12 -5 -16 -5 -3 -10 -2 -10 3 0 5 -12 10 -26 10 -16 0 -21 -3 -14 -8 9
-5 9 -9 1 -14 -6 -4 -11 -13 -11 -19 0 -7 4 -6 10 3 5 8 10 10 10 4 0 -6 -8
-18 -17 -25 -9 -8 -14 -9 -10 -3 11 18 -21 25 -37 9 -20 -20 -26 -19 -21 5 6
30 15 41 27 34 7 -4 8 -2 4 4 -4 6 2 20 13 31 27 27 75 51 79 40 3 -6 9 -6 17
1z m65 -40 c0 -5 -5 -10 -11 -10 -5 0 -7 5 -4 10 3 6 8 10 11 10 2 0 4 -4 4
-10z m-163 -92 c-3 -8 -6 -5 -6 6 -1 11 2 17 5 13 3 -3 4 -12 1 -19z m-17 -18
c0 -5 -5 -10 -11 -10 -5 0 -7 5 -4 10 3 6 8 10 11 10 2 0 4 -4 4 -10z m-10
-29 c0 -6 -4 -12 -8 -15 -5 -3 -9 1 -9 9 0 8 4 15 9 15 4 0 8 -4 8 -9z"/>
<path d="M5347 6841 c3 -12 11 -17 19 -14 19 7 18 19 -2 27 -22 9 -23 8 -17
-13z"/>
<path d="M5360 6800 c0 -8 5 -22 10 -30 9 -13 10 -13 10 0 0 8 -5 22 -10 30
-9 13 -10 13 -10 0z"/>
<path d="M4665 5140 c4 -6 11 -8 16 -5 14 9 11 15 -7 15 -8 0 -12 -5 -9 -10z"/>
<path d="M3455 5420 c3 -5 8 -10 11 -10 2 0 4 5 4 10 0 6 -5 10 -11 10 -5 0
-7 -4 -4 -10z"/>
<path d="M5103 5098 c-6 -24 -42 -148 -82 -277 -39 -128 -71 -237 -71 -242 0
-5 74 -9 165 -9 125 0 165 3 165 13 0 6 -15 59 -34 117 -18 58 -53 180 -77
272 -24 93 -47 168 -50 168 -3 0 -10 -19 -16 -42z"/>
<path d="M5169 4401 c8 -5 10 -14 6 -22 -5 -8 1 -6 12 4 25 22 29 22 36 -4 5
-20 7 -20 27 -6 12 9 29 13 36 10 8 -3 14 0 14 6 0 6 22 12 53 13 l52 2 -48 3
c-28 3 -55 -1 -63 -8 -10 -8 -14 -8 -14 0 0 7 -23 11 -62 11 -40 0 -58 -4 -49
-9z m68 -23 c-3 -8 -6 -5 -6 6 -1 11 2 17 5 13 3 -3 4 -12 1 -19z"/>
<path d="M6963 4363 c9 -2 23 -2 30 0 6 3 -1 5 -18 5 -16 0 -22 -2 -12 -5z"/>
<path d="M5973 4267 c4 -11 10 -29 13 -41 3 -13 11 -23 18 -23 10 0 8 11 -7
36 -25 43 -32 52 -24 28z"/>
<path d="M6039 4186 c9 -11 9 -15 -1 -19 -7 -3 -2 -6 11 -6 23 -1 24 0 6 19
-20 23 -34 28 -16 6z"/>
<path d="M6026 4142 c-3 -5 8 -21 24 -37 20 -20 28 -23 26 -11 -1 9 -6 17 -12
17 -15 1 -34 21 -28 30 3 5 3 9 0 9 -3 0 -7 -4 -10 -8z"/>
<path d="M6108 4138 c5 -5 16 -8 23 -6 8 3 3 7 -10 11 -17 4 -21 3 -13 -5z"/>
<path d="M6583 4123 c9 -2 25 -2 35 0 9 3 1 5 -18 5 -19 0 -27 -2 -17 -5z"/>
<path d="M6688 4123 c7 -3 16 -2 19 1 4 3 -2 6 -13 5 -11 0 -14 -3 -6 -6z"/>
<path d="M6418 4023 c7 -3 16 -2 19 1 4 3 -2 6 -13 5 -11 0 -14 -3 -6 -6z"/>
</g>
</svg>
